<svg xmlns="http://www.w3.org/2000/svg" viewBox="0 0 80 80" width="80" height="80" fill="none">
  <defs>
    <linearGradient id="base" x1="11" y1="4" x2="66" y2="78" gradientUnits="userSpaceOnUse">
      <stop stop-color="#d0e4e4"/>
      <stop offset=".52" stop-color="#75aeb9"/>
      <stop offset="1" stop-color="#326b7e"/>
    </linearGradient>
    <linearGradient id="ivory" x1="22" y1="14" x2="54" y2="65" gradientUnits="userSpaceOnUse">
      <stop stop-color="#fffef1"/>
      <stop offset=".5" stop-color="#f4f0db"/>
      <stop offset="1" stop-color="#c8cdb8"/>
    </linearGradient>
    <linearGradient id="core" x1="25" y1="20" x2="58" y2="61" gradientUnits="userSpaceOnUse">
      <stop stop-color="#d0e4e4"/>
      <stop offset=".4" stop-color="#75aeb9"/>
      <stop offset="1" stop-color="#326b7e"/>
    </linearGradient>
    <radialGradient id="light" cx="0" cy="0" r="1" gradientTransform="translate(23 9) rotate(60) scale(66 74)" gradientUnits="userSpaceOnUse">
      <stop stop-color="white" stop-opacity=".58"/>
      <stop offset=".7" stop-color="white" stop-opacity="0"/>
    </radialGradient>
    <filter id="shadow" x="-45%" y="-40%" width="190%" height="205%">
      <feDropShadow dx="0" dy="3" stdDeviation="2" flood-color="#326b7e" flood-opacity=".42"/>
    </filter>
  </defs>
  <rect x="2" y="2" width="76" height="76" rx="19" fill="url(#base)"/>
  <rect x="3" y="3" width="74" height="74" rx="18" fill="url(#light)"/>
  <rect x="3" y="3" width="74" height="74" rx="18" stroke="#fff" stroke-opacity=".43" stroke-width=".8"/>
  <path d="M14 8C18 5 23 5 31 5H55" stroke="white" stroke-opacity=".58" stroke-linecap="round"/>
  <g filter="url(#shadow)">
    <path d="M15 27a5 5 0 015-5h16l6 6h19a5 5 0 015 5v23a6 6 0 01-6 6H21a6 6 0 01-6-6z" fill="#326b7e"/>
    <path d="M22 19h29l8 9v26H22z" fill="url(#ivory)"/>
    <path d="M51 19v10h8" fill="#d3ddd0"/>
    <path d="M28 29h15M28 34h21" stroke="#75aeb9" stroke-width="2" stroke-linecap="round"/>
    <path d="M13 36a4 4 0 014-4h16l5 5h27a4 4 0 014 5l-5 17a6 6 0 01-6 4H22a6 6 0 01-6-5z" fill="url(#core)"/>
    <path d="M16 35h17l5 5h27" stroke="#e9ffff" stroke-opacity=".75" stroke-width="1.2"/>
    <path d="M33 51h15" stroke="#e3f2e4" stroke-width="3" stroke-linecap="round"/>
    <circle cx="54" cy="51" r="1.5" fill="#e3f2e4"/>
  </g>
  <path d="M15 73c11 4 37 4 50-1" stroke="#122e21" stroke-opacity=".15" stroke-width="1.2" stroke-linecap="round"/>
</svg>
