<svg xmlns="http://www.w3.org/2000/svg" viewBox="0 0 80 80" width="80" height="80" fill="none">
  <defs>
    <linearGradient id="base" x1="11" y1="4" x2="66" y2="78" gradientUnits="userSpaceOnUse">
      <stop stop-color="#efd8c9"/>
      <stop offset=".52" stop-color="#cd9b86"/>
      <stop offset="1" stop-color="#875945"/>
    </linearGradient>
    <linearGradient id="ivory" x1="22" y1="14" x2="54" y2="65" gradientUnits="userSpaceOnUse">
      <stop stop-color="#fffef1"/>
      <stop offset=".5" stop-color="#f4f0db"/>
      <stop offset="1" stop-color="#c8cdb8"/>
    </linearGradient>
    <radialGradient id="light" cx="0" cy="0" r="1" gradientTransform="translate(23 9) rotate(60) scale(66 74)" gradientUnits="userSpaceOnUse">
      <stop stop-color="white" stop-opacity=".58"/>
      <stop offset=".7" stop-color="white" stop-opacity="0"/>
    </radialGradient>
    <filter id="shadow" x="-45%" y="-40%" width="190%" height="205%">
      <feDropShadow dx="0" dy="3" stdDeviation="2" flood-color="#875945" flood-opacity=".42"/>
    </filter>
  </defs>
  <rect x="2" y="2" width="76" height="76" rx="19" fill="url(#base)"/>
  <rect x="3" y="3" width="74" height="74" rx="18" fill="url(#light)"/>
  <rect x="3" y="3" width="74" height="74" rx="18" stroke="#fff" stroke-opacity=".43" stroke-width=".8"/>
  <path d="M14 8C18 5 23 5 31 5H55" stroke="white" stroke-opacity=".58" stroke-linecap="round"/>
  <g filter="url(#shadow)">
    <rect x="19" y="16" width="42" height="45" rx="5" transform="rotate(-13 40 40)" fill="#f6ead5"/>
    <rect x="21" y="20" width="43" height="45" rx="5" transform="rotate(8 42 43)" fill="url(#ivory)"/>
    <g transform="rotate(8 42 43)">
      <rect x="25" y="24" width="35" height="31" rx="3" fill="#9dbdb5"/>
      <circle cx="50" cy="32" r="5" fill="#ffedbc"/>
      <path d="M25 49l12-12 10 12 6-5 7 7v4H25z" fill="#5e8b76"/>
      <path d="M25 51l15-8 20 11v1H25z" fill="#bbc5a0"/>
      <path d="M30 60h11" stroke="#ab9981" stroke-width="1.5" stroke-linecap="round"/>
    </g>
  </g>
  <path d="M15 73c11 4 37 4 50-1" stroke="#122e21" stroke-opacity=".15" stroke-width="1.2" stroke-linecap="round"/>
</svg>
