<svg xmlns="http://www.w3.org/2000/svg" viewBox="0 0 80 80" width="80" height="80" fill="none">
  <defs>
    <linearGradient id="base" x1="11" y1="4" x2="66" y2="78" gradientUnits="userSpaceOnUse">
      <stop stop-color="#e1dced"/>
      <stop offset=".52" stop-color="#a596bc"/>
      <stop offset="1" stop-color="#625078"/>
    </linearGradient>
    <linearGradient id="metal" x1="16" y1="13" x2="61" y2="69" gradientUnits="userSpaceOnUse">
      <stop stop-color="#fffef5"/>
      <stop offset=".28" stop-color="#dce2d9"/>
      <stop offset=".51" stop-color="#a0afa1"/>
      <stop offset=".72" stop-color="#e4e9d9"/>
      <stop offset="1" stop-color="#667c6f"/>
    </linearGradient>
    <linearGradient id="ivory" x1="22" y1="14" x2="54" y2="65" gradientUnits="userSpaceOnUse">
      <stop stop-color="#fffef1"/>
      <stop offset=".5" stop-color="#f4f0db"/>
      <stop offset="1" stop-color="#c8cdb8"/>
    </linearGradient>
    <radialGradient id="light" cx="0" cy="0" r="1" gradientTransform="translate(23 9) rotate(60) scale(66 74)" gradientUnits="userSpaceOnUse">
      <stop stop-color="white" stop-opacity=".58"/>
      <stop offset=".7" stop-color="white" stop-opacity="0"/>
    </radialGradient>
    <filter id="shadow" x="-45%" y="-40%" width="190%" height="205%">
      <feDropShadow dx="0" dy="3" stdDeviation="2" flood-color="#625078" flood-opacity=".42"/>
    </filter>
  </defs>
  <rect x="2" y="2" width="76" height="76" rx="19" fill="url(#base)"/>
  <rect x="3" y="3" width="74" height="74" rx="18" fill="url(#light)"/>
  <rect x="3" y="3" width="74" height="74" rx="18" stroke="#fff" stroke-opacity=".43" stroke-width=".8"/>
  <path d="M14 8C18 5 23 5 31 5H55" stroke="white" stroke-opacity=".58" stroke-linecap="round"/>
  <g filter="url(#shadow)">
    <rect x="15" y="19" width="50" height="44" rx="10" fill="url(#metal)"/>
    <rect x="19" y="23" width="42" height="36" rx="7" fill="#625078"/>
    <path d="M21 30h38M21 53h38" stroke="#a596bc" stroke-opacity=".5"/>
    <rect x="24" y="21" width="4" height="2" rx="1" fill="#625078"/>
    <rect x="24" y="59" width="4" height="2" rx="1" fill="#625078"/>
    <rect x="34" y="21" width="4" height="2" rx="1" fill="#625078"/>
    <rect x="34" y="59" width="4" height="2" rx="1" fill="#625078"/>
    <rect x="44" y="21" width="4" height="2" rx="1" fill="#625078"/>
    <rect x="44" y="59" width="4" height="2" rx="1" fill="#625078"/>
    <rect x="54" y="21" width="4" height="2" rx="1" fill="#625078"/>
    <rect x="54" y="59" width="4" height="2" rx="1" fill="#625078"/>
    <path d="M35 30c-1-1-3 0-3 2v19c0 2 2 3 3 2l17-10c2-1 2-3 0-4z" fill="url(#ivory)"/>
    <path d="M35 34l13 7-13 8" stroke="#fff" stroke-opacity=".6" stroke-width="1"/>
  </g>
  <path d="M15 73c11 4 37 4 50-1" stroke="#122e21" stroke-opacity=".15" stroke-width="1.2" stroke-linecap="round"/>
</svg>
